<svg width="128" height="128" viewBox="0 0 128 128" fill="none" xmlns="http://www.w3.org/2000/svg">
<rect width="128" height="128" fill="#5CBCF9"/>
<path fill-rule="evenodd" clip-rule="evenodd" d="M84.0779 52.9926C88.3611 49.9978 91.161 45.0661 91.161 39.5086C91.161 30.405 83.639 23 74.3764 23H33.7846C24.522 23 17 30.405 17 39.5235C17 45.081 19.8 50.0127 24.0831 53.0074C19.8 56.0022 17 60.919 17 66.4765C17 75.5801 24.522 83 33.7846 83H59.5594H65.7344H74.3764C83.6239 83 91.161 75.595 91.161 66.4765C91.161 60.919 88.3611 56.0022 84.0779 52.9926ZM65.7344 76.921H74.3764C80.2185 76.921 84.986 72.2277 84.9709 66.4765C84.9709 60.7104 80.2185 56.032 74.3764 56.032H33.7846C27.9274 56.032 23.175 60.7253 23.175 66.4765C23.175 72.2277 27.9425 76.9061 33.7846 76.9061H59.5594L65.7344 76.921ZM33.7846 29.0939C27.9274 29.0939 23.175 33.7723 23.175 39.5235C23.175 45.2746 27.9425 49.9531 33.7846 49.968H74.3764C80.2185 49.968 84.9709 45.2746 84.9709 39.5235C84.9709 33.7723 80.2185 29.0939 74.3764 29.0939H33.7846Z" fill="white"/>
<path d="M32.3316 42.5629H33.6786C35.3889 42.5629 36.7661 41.207 36.7661 39.5234C36.7661 37.8397 35.3889 36.4839 33.6786 36.4839H32.3316C30.6214 36.4839 29.2441 37.8397 29.2441 39.5234C29.2289 41.207 30.6214 42.5629 32.3316 42.5629Z" fill="white"/>
<path d="M43.9098 42.5629H45.2568C46.967 42.5629 48.3443 41.207 48.3443 39.5234C48.3443 37.8397 46.967 36.4839 45.2568 36.4839H43.9098C42.1995 36.4839 40.8223 37.8397 40.8223 39.5234C40.8223 41.207 42.1995 42.5629 43.9098 42.5629Z" fill="white"/>
<path d="M34.3598 63.437H33.0128C31.3025 63.437 29.9252 64.7929 29.9252 66.4765C29.9252 68.1601 31.3025 69.516 33.0128 69.516H34.3598C36.07 69.516 37.4473 68.1601 37.4473 66.4765C37.4473 64.7929 36.0549 63.437 34.3598 63.437Z" fill="white"/>
<path d="M45.9379 63.437H44.5909C42.8806 63.437 41.5034 64.7929 41.5034 66.4765C41.5034 68.1601 42.8806 69.516 44.5909 69.516H45.9379C47.6481 69.516 49.0254 68.1601 49.0254 66.4765C49.0254 64.7929 47.6481 63.437 45.9379 63.437Z" fill="white"/>
<path d="M66.7529 97.3345C65.4197 98.0804 63.7763 97.1168 63.7763 95.5891V83.5526C63.7763 82.912 63.4669 82.3129 62.9593 81.9222C55.3286 76.0492 51 67.8269 51 59.0533C51 41.9308 67.598 28 88 28C108.402 28 125 41.9308 125 59.0531C125 76.1751 108.402 90.1062 88 90.1062C85.8158 90.1062 83.6181 89.9403 81.4463 89.6121C80.9963 89.544 80.5354 89.6225 80.1383 89.8448L66.7529 97.3345ZM88 33.0033C70.3428 33.0033 55.9775 44.6895 55.9775 59.0531C55.9775 66.8396 60.2304 74.164 67.647 79.1458L67.8679 79.2942C68.421 79.6657 68.7528 80.2882 68.7528 80.9544V87.0776C68.7528 88.6052 70.3961 89.5689 71.7292 88.8231L79.2554 84.6127C79.6644 84.3838 80.1409 84.3059 80.6015 84.3926L80.7726 84.4248C83.1565 84.8742 85.5878 85.1029 87.9998 85.1029C105.657 85.1029 120.022 73.4173 120.022 59.0531C120.023 44.6895 105.658 33.0033 88 33.0033Z" fill="#1C4651"/>
<path d="M88 33.0033C70.3428 33.0033 55.9775 44.6895 55.9775 59.0531C55.9775 66.8396 60.2304 74.164 67.647 79.1458L67.8679 79.2942C68.421 79.6657 68.7528 80.2882 68.7528 80.9544V87.0776C68.7528 88.6052 70.3961 89.5689 71.7292 88.8231L79.2554 84.6127C79.6644 84.3838 80.1409 84.3059 80.6015 84.3926L80.7726 84.4248C83.1565 84.8742 85.5878 85.1029 87.9998 85.1029C105.657 85.1029 120.022 73.4173 120.022 59.0531C120.023 44.6895 105.658 33.0033 88 33.0033Z" fill="#1C4651"/>
<mask id="mask0_135_2" style="mask-type:alpha" maskUnits="userSpaceOnUse" x="51" y="28" width="74" height="70">
<path d="M66.7529 97.3345C65.4197 98.0804 63.7763 97.1168 63.7763 95.5891V83.5526C63.7763 82.912 63.4669 82.3129 62.9593 81.9222C55.3286 76.0492 51 67.8269 51 59.0533C51 41.9308 67.598 28 88 28C108.402 28 125 41.9308 125 59.0531C125 76.1751 108.402 90.1062 88 90.1062C85.8158 90.1062 83.6181 89.9403 81.4463 89.6121C80.9963 89.544 80.5354 89.6225 80.1383 89.8448L66.7529 97.3345ZM88 33.0033C70.3428 33.0033 55.9775 44.6895 55.9775 59.0531C55.9775 66.8396 60.2304 74.164 67.647 79.1458L67.8679 79.2942C68.421 79.6657 68.7528 80.2882 68.7528 80.9544V87.0776C68.7528 88.6052 70.3961 89.5689 71.7292 88.8231L79.2554 84.6127C79.6644 84.3838 80.1409 84.3059 80.6015 84.3926L80.7726 84.4248C83.1565 84.8742 85.5878 85.1029 87.9998 85.1029C105.657 85.1029 120.022 73.4173 120.022 59.0531C120.023 44.6895 105.658 33.0033 88 33.0033Z" fill="#1C4651"/>
<path d="M88 33.0033C70.3428 33.0033 55.9775 44.6895 55.9775 59.0531C55.9775 66.8396 60.2304 74.164 67.647 79.1458L67.8679 79.2942C68.421 79.6657 68.7528 80.2882 68.7528 80.9544V87.0776C68.7528 88.6052 70.3961 89.5689 71.7292 88.8231L79.2554 84.6127C79.6644 84.3838 80.1409 84.3059 80.6015 84.3926L80.7726 84.4248C83.1565 84.8742 85.5878 85.1029 87.9998 85.1029C105.657 85.1029 120.022 73.4173 120.022 59.0531C120.023 44.6895 105.658 33.0033 88 33.0033Z" fill="#1C4651"/>
</mask>
<g mask="url(#mask0_135_2)">
<path fill-rule="evenodd" clip-rule="evenodd" d="M84.0779 52.9926C88.3611 49.9978 91.161 45.0661 91.161 39.5086C91.161 30.405 83.639 23 74.3764 23H33.7846C24.522 23 17 30.405 17 39.5235C17 45.081 19.8 50.0127 24.0831 53.0074C19.8 56.0022 17 60.919 17 66.4765C17 75.5801 24.522 83 33.7846 83H59.5594H65.7344H74.3764C83.6239 83 91.161 75.595 91.161 66.4765C91.161 60.919 88.3611 56.0022 84.0779 52.9926ZM65.7344 76.921H74.3764C80.2185 76.921 84.986 72.2277 84.9709 66.4765C84.9709 60.7104 80.2185 56.032 74.3764 56.032H33.7846C27.9274 56.032 23.175 60.7253 23.175 66.4765C23.175 72.2277 27.9425 76.9061 33.7846 76.9061H59.5594L65.7344 76.921ZM33.7846 29.0939C27.9274 29.0939 23.175 33.7723 23.175 39.5235C23.175 45.2746 27.9425 49.9531 33.7846 49.968H74.3764C80.2185 49.968 84.9709 45.2746 84.9709 39.5235C84.9709 33.7723 80.2185 29.0939 74.3764 29.0939H33.7846Z" fill="#B2F37C"/>
</g>
</svg>
